<mxfile host="app.diagrams.net" modified="2021-04-04T09:42:42.883Z" agent="5.0 (Windows NT 10.0; Win64; x64) AppleWebKit/537.36 (KHTML, like Gecko) Chrome/89.0.4389.114 Safari/537.36 Edg/89.0.774.68" etag="o5rLco1I2EgbGZZX84Mm" version="14.5.6" type="github">
  <diagram name="Page-1" id="7e0a89b8-554c-2b80-1dc8-d5c74ca68de4">
    <mxGraphModel dx="474" dy="499" grid="1" gridSize="10" guides="1" tooltips="1" connect="1" arrows="1" fold="1" page="1" pageScale="1" pageWidth="1100" pageHeight="850" background="#ffffff" math="0" shadow="0">
      <root>
        <mxCell id="0" />
        <mxCell id="1" parent="0" />
        <mxCell id="vYqflnCAgJayOKZE_ec5-8" value="&lt;font face=&quot;Times New Roman&quot;&gt;&lt;b&gt;&lt;i&gt;Q2&amp;nbsp;&lt;/i&gt;导通&lt;/b&gt;&lt;/font&gt;" style="rounded=1;whiteSpace=wrap;html=1;" parent="1" vertex="1">
          <mxGeometry x="335" y="220" width="62" height="23" as="geometry" />
        </mxCell>
        <mxCell id="vYqflnCAgJayOKZE_ec5-19" value="&lt;font face=&quot;Times New Roman&quot; style=&quot;font-weight: bold ; font-style: italic&quot;&gt;Q4&amp;nbsp;&lt;/font&gt;&lt;b&gt;截止&lt;/b&gt;" style="rounded=1;whiteSpace=wrap;html=1;" parent="1" vertex="1">
          <mxGeometry x="338" y="352.5" width="62" height="20" as="geometry" />
        </mxCell>
        <mxCell id="vYqflnCAgJayOKZE_ec5-12" value="" style="ellipse;whiteSpace=wrap;html=1;aspect=fixed;" parent="1" vertex="1">
          <mxGeometry x="234" y="260" width="30" height="30" as="geometry" />
        </mxCell>
        <mxCell id="vYqflnCAgJayOKZE_ec5-11" value="" style="ellipse;whiteSpace=wrap;html=1;aspect=fixed;" parent="1" vertex="1">
          <mxGeometry x="235" y="327.75" width="30" height="30" as="geometry" />
        </mxCell>
        <mxCell id="STrl3_DRAEaX8d2Ob24q-1" style="edgeStyle=orthogonalEdgeStyle;rounded=0;orthogonalLoop=1;jettySize=auto;html=1;exitX=0.7;exitY=0;exitDx=0;exitDy=0;exitPerimeter=0;entryX=1;entryY=0.5;entryDx=0;entryDy=0;entryPerimeter=0;endArrow=none;endFill=0;endSize=5;strokeColor=#000000;strokeWidth=1;" parent="1" source="STrl3_DRAEaX8d2Ob24q-2" target="STrl3_DRAEaX8d2Ob24q-17" edge="1">
          <mxGeometry relative="1" as="geometry" />
        </mxCell>
        <mxCell id="STrl3_DRAEaX8d2Ob24q-2" value="" style="verticalLabelPosition=bottom;shadow=0;dashed=0;align=center;html=1;verticalAlign=top;shape=mxgraph.electrical.mosfets1.n-channel_mosfet_1;strokeWidth=1;direction=west;flipH=1;flipV=1;" parent="1" vertex="1">
          <mxGeometry x="280" y="240" width="43" height="47.5" as="geometry" />
        </mxCell>
        <mxCell id="STrl3_DRAEaX8d2Ob24q-3" style="edgeStyle=orthogonalEdgeStyle;rounded=0;orthogonalLoop=1;jettySize=auto;html=1;exitX=0.7;exitY=0;exitDx=0;exitDy=0;exitPerimeter=0;entryX=0.7;entryY=1;entryDx=0;entryDy=0;entryPerimeter=0;endArrow=none;endFill=0;endSize=5;strokeColor=#000000;strokeWidth=1;" parent="1" source="STrl3_DRAEaX8d2Ob24q-5" target="STrl3_DRAEaX8d2Ob24q-2" edge="1">
          <mxGeometry relative="1" as="geometry" />
        </mxCell>
        <mxCell id="STrl3_DRAEaX8d2Ob24q-4" style="edgeStyle=orthogonalEdgeStyle;rounded=0;orthogonalLoop=1;jettySize=auto;html=1;exitX=0.7;exitY=1;exitDx=0;exitDy=0;exitPerimeter=0;entryX=0.7;entryY=1;entryDx=0;entryDy=0;entryPerimeter=0;endArrow=none;endFill=0;endSize=5;strokeColor=#000000;strokeWidth=1;" parent="1" source="STrl3_DRAEaX8d2Ob24q-5" target="STrl3_DRAEaX8d2Ob24q-10" edge="1">
          <mxGeometry relative="1" as="geometry" />
        </mxCell>
        <mxCell id="STrl3_DRAEaX8d2Ob24q-5" value="" style="verticalLabelPosition=bottom;shadow=0;dashed=0;align=center;html=1;verticalAlign=top;shape=mxgraph.electrical.mosfets1.n-channel_mosfet_1;strokeWidth=1;direction=west;flipH=1;flipV=1;" parent="1" vertex="1">
          <mxGeometry x="280" y="310" width="43" height="47.5" as="geometry" />
        </mxCell>
        <mxCell id="STrl3_DRAEaX8d2Ob24q-6" style="edgeStyle=orthogonalEdgeStyle;rounded=0;orthogonalLoop=1;jettySize=auto;html=1;exitX=0.7;exitY=0;exitDx=0;exitDy=0;exitPerimeter=0;entryX=0;entryY=0.5;entryDx=0;entryDy=0;entryPerimeter=0;endArrow=none;endFill=0;endSize=5;strokeColor=#000000;strokeWidth=1;" parent="1" source="STrl3_DRAEaX8d2Ob24q-7" target="STrl3_DRAEaX8d2Ob24q-24" edge="1">
          <mxGeometry relative="1" as="geometry" />
        </mxCell>
        <mxCell id="STrl3_DRAEaX8d2Ob24q-7" value="" style="verticalLabelPosition=bottom;shadow=0;dashed=0;align=center;html=1;verticalAlign=top;shape=mxgraph.electrical.mosfets1.n-channel_mosfet_1;strokeWidth=1;direction=west;flipH=0;flipV=1;" parent="1" vertex="1">
          <mxGeometry x="391" y="240" width="43" height="47.5" as="geometry" />
        </mxCell>
        <mxCell id="STrl3_DRAEaX8d2Ob24q-8" style="edgeStyle=orthogonalEdgeStyle;rounded=0;orthogonalLoop=1;jettySize=auto;html=1;exitX=0.7;exitY=0;exitDx=0;exitDy=0;exitPerimeter=0;entryX=0.7;entryY=1;entryDx=0;entryDy=0;entryPerimeter=0;endArrow=none;endFill=0;endSize=5;strokeColor=#000000;strokeWidth=1;" parent="1" source="STrl3_DRAEaX8d2Ob24q-10" target="STrl3_DRAEaX8d2Ob24q-7" edge="1">
          <mxGeometry relative="1" as="geometry" />
        </mxCell>
        <mxCell id="STrl3_DRAEaX8d2Ob24q-9" style="edgeStyle=orthogonalEdgeStyle;rounded=0;orthogonalLoop=1;jettySize=auto;html=1;exitX=0.7;exitY=1;exitDx=0;exitDy=0;exitPerimeter=0;entryX=1;entryY=0.5;entryDx=0;entryDy=0;entryPerimeter=0;endArrow=none;endFill=0;endSize=5;strokeColor=#000000;strokeWidth=1;" parent="1" source="STrl3_DRAEaX8d2Ob24q-10" target="STrl3_DRAEaX8d2Ob24q-26" edge="1">
          <mxGeometry relative="1" as="geometry" />
        </mxCell>
        <mxCell id="STrl3_DRAEaX8d2Ob24q-10" value="" style="verticalLabelPosition=bottom;shadow=0;dashed=0;align=center;html=1;verticalAlign=top;shape=mxgraph.electrical.mosfets1.n-channel_mosfet_1;strokeWidth=1;direction=west;flipH=0;flipV=1;" parent="1" vertex="1">
          <mxGeometry x="391" y="310" width="43" height="47.5" as="geometry" />
        </mxCell>
        <mxCell id="STrl3_DRAEaX8d2Ob24q-11" style="edgeStyle=orthogonalEdgeStyle;rounded=0;orthogonalLoop=1;jettySize=auto;html=1;exitX=0;exitY=1;exitDx=0;exitDy=0;exitPerimeter=0;entryX=0.7;entryY=0;entryDx=0;entryDy=0;entryPerimeter=0;endArrow=none;endFill=0;endSize=5;strokeColor=#000000;strokeWidth=1;" parent="1" target="STrl3_DRAEaX8d2Ob24q-5" edge="1">
          <mxGeometry relative="1" as="geometry">
            <mxPoint x="331" y="300" as="sourcePoint" />
          </mxGeometry>
        </mxCell>
        <mxCell id="STrl3_DRAEaX8d2Ob24q-12" style="edgeStyle=orthogonalEdgeStyle;rounded=0;orthogonalLoop=1;jettySize=auto;html=1;exitX=1;exitY=1;exitDx=0;exitDy=0;exitPerimeter=0;entryX=0.7;entryY=0;entryDx=0;entryDy=0;entryPerimeter=0;endArrow=none;endFill=0;endSize=5;strokeColor=#000000;strokeWidth=1;" parent="1" target="STrl3_DRAEaX8d2Ob24q-10" edge="1">
          <mxGeometry relative="1" as="geometry">
            <mxPoint x="386" y="300" as="sourcePoint" />
          </mxGeometry>
        </mxCell>
        <mxCell id="STrl3_DRAEaX8d2Ob24q-13" value="" style="pointerEvents=1;verticalLabelPosition=bottom;shadow=0;dashed=0;align=center;html=1;verticalAlign=top;shape=mxgraph.electrical.inductors.inductor_3;strokeWidth=1;direction=east;" parent="1" vertex="1">
          <mxGeometry x="319" y="292" width="78" height="8" as="geometry" />
        </mxCell>
        <mxCell id="STrl3_DRAEaX8d2Ob24q-14" value="" style="ellipse;whiteSpace=wrap;html=1;aspect=fixed;shadow=0;dashed=0;strokeWidth=2;" parent="1" vertex="1">
          <mxGeometry x="309" y="299" width="2" height="2" as="geometry" />
        </mxCell>
        <mxCell id="STrl3_DRAEaX8d2Ob24q-15" value="" style="ellipse;whiteSpace=wrap;html=1;aspect=fixed;shadow=0;dashed=0;strokeWidth=2;" parent="1" vertex="1">
          <mxGeometry x="403" y="299" width="2" height="2" as="geometry" />
        </mxCell>
        <mxCell id="STrl3_DRAEaX8d2Ob24q-16" style="edgeStyle=orthogonalEdgeStyle;rounded=0;orthogonalLoop=1;jettySize=auto;html=1;exitX=0;exitY=0.5;exitDx=0;exitDy=0;exitPerimeter=0;entryX=0.7;entryY=1;entryDx=0;entryDy=0;entryPerimeter=0;endArrow=none;endFill=0;endSize=5;strokeColor=#000000;strokeWidth=1;" parent="1" source="STrl3_DRAEaX8d2Ob24q-17" target="STrl3_DRAEaX8d2Ob24q-5" edge="1">
          <mxGeometry relative="1" as="geometry" />
        </mxCell>
        <mxCell id="STrl3_DRAEaX8d2Ob24q-17" value="" style="verticalLabelPosition=bottom;shadow=0;dashed=0;align=center;fillColor=#000000;html=1;verticalAlign=top;strokeWidth=1;shape=mxgraph.electrical.miscellaneous.monocell_battery;rounded=1;comic=0;labelBackgroundColor=none;fontFamily=Verdana;fontSize=12;flipH=1;direction=north;" parent="1" vertex="1">
          <mxGeometry x="180" y="266" width="40" height="60" as="geometry" />
        </mxCell>
        <mxCell id="STrl3_DRAEaX8d2Ob24q-18" value="&lt;font style=&quot;font-size: 18px&quot;&gt;V&lt;/font&gt;&lt;font style=&quot;font-size: 12px&quot;&gt;IN&lt;/font&gt;" style="text;html=1;align=center;verticalAlign=middle;resizable=0;points=[];autosize=1;" parent="1" vertex="1">
          <mxGeometry x="160" y="301" width="40" height="20" as="geometry" />
        </mxCell>
        <mxCell id="STrl3_DRAEaX8d2Ob24q-19" value="&lt;font face=&quot;Times New Roman&quot;&gt;&lt;i&gt;&lt;b&gt;Q1&lt;/b&gt;&lt;/i&gt;&lt;/font&gt;" style="text;html=1;strokeColor=none;fillColor=none;align=center;verticalAlign=middle;whiteSpace=wrap;rounded=0;" parent="1" vertex="1">
          <mxGeometry x="271.5" y="279" width="40" height="20" as="geometry" />
        </mxCell>
        <mxCell id="STrl3_DRAEaX8d2Ob24q-20" value="&lt;font face=&quot;Times New Roman&quot;&gt;&lt;i&gt;&lt;b&gt;Q2&lt;br&gt;&lt;/b&gt;&lt;/i&gt;&lt;/font&gt;" style="text;html=1;strokeColor=none;fillColor=none;align=center;verticalAlign=middle;whiteSpace=wrap;rounded=0;" parent="1" vertex="1">
          <mxGeometry x="420" y="253" width="40" height="20" as="geometry" />
        </mxCell>
        <mxCell id="STrl3_DRAEaX8d2Ob24q-21" value="&lt;font face=&quot;Times New Roman&quot;&gt;&lt;i&gt;&lt;b&gt;Q3&lt;/b&gt;&lt;/i&gt;&lt;/font&gt;" style="text;html=1;strokeColor=none;fillColor=none;align=center;verticalAlign=middle;whiteSpace=wrap;rounded=0;" parent="1" vertex="1">
          <mxGeometry x="271.5" y="352.5" width="40" height="20" as="geometry" />
        </mxCell>
        <mxCell id="STrl3_DRAEaX8d2Ob24q-22" value="&lt;font face=&quot;Times New Roman&quot;&gt;&lt;i&gt;&lt;b&gt;Q4&lt;/b&gt;&lt;/i&gt;&lt;/font&gt;" style="text;html=1;strokeColor=none;fillColor=none;align=center;verticalAlign=middle;whiteSpace=wrap;rounded=0;" parent="1" vertex="1">
          <mxGeometry x="420" y="323.75" width="40" height="20" as="geometry" />
        </mxCell>
        <mxCell id="STrl3_DRAEaX8d2Ob24q-23" style="edgeStyle=orthogonalEdgeStyle;rounded=0;orthogonalLoop=1;jettySize=auto;html=1;exitX=1;exitY=0.5;exitDx=0;exitDy=0;exitPerimeter=0;endArrow=none;endFill=0;endSize=5;strokeColor=#000000;strokeWidth=1;entryX=0.7;entryY=1;entryDx=0;entryDy=0;entryPerimeter=0;" parent="1" source="STrl3_DRAEaX8d2Ob24q-24" target="STrl3_DRAEaX8d2Ob24q-10" edge="1">
          <mxGeometry relative="1" as="geometry">
            <mxPoint x="430" y="380" as="targetPoint" />
          </mxGeometry>
        </mxCell>
        <mxCell id="STrl3_DRAEaX8d2Ob24q-24" value="" style="pointerEvents=1;verticalLabelPosition=bottom;shadow=0;dashed=0;align=center;html=1;verticalAlign=top;shape=mxgraph.electrical.capacitors.capacitor_1;direction=south;" parent="1" vertex="1">
          <mxGeometry x="441" y="267.75" width="30" height="60" as="geometry" />
        </mxCell>
        <mxCell id="STrl3_DRAEaX8d2Ob24q-25" style="edgeStyle=orthogonalEdgeStyle;rounded=0;orthogonalLoop=1;jettySize=auto;html=1;exitX=0;exitY=0.5;exitDx=0;exitDy=0;exitPerimeter=0;entryX=0;entryY=0.5;entryDx=0;entryDy=0;entryPerimeter=0;endArrow=none;endFill=0;endSize=5;strokeColor=#000000;strokeWidth=1;" parent="1" source="STrl3_DRAEaX8d2Ob24q-26" target="STrl3_DRAEaX8d2Ob24q-24" edge="1">
          <mxGeometry relative="1" as="geometry">
            <Array as="points">
              <mxPoint x="486" y="219.75" />
              <mxPoint x="456" y="219.75" />
            </Array>
          </mxGeometry>
        </mxCell>
        <mxCell id="STrl3_DRAEaX8d2Ob24q-26" value="" style="pointerEvents=1;verticalLabelPosition=bottom;shadow=0;dashed=0;align=center;html=1;verticalAlign=top;shape=mxgraph.electrical.resistors.resistor_2;strokeWidth=1;direction=south;" parent="1" vertex="1">
          <mxGeometry x="481" y="274.75" width="10" height="46" as="geometry" />
        </mxCell>
        <mxCell id="v6tkJ2GT0aAer87_zzX_-1" value="&lt;font face=&quot;Times New Roman&quot;&gt;&lt;b style=&quot;font-style: italic&quot;&gt;I&lt;/b&gt;&lt;sub&gt;&lt;font style=&quot;font-size: 11px&quot;&gt;L&lt;/font&gt;&lt;/sub&gt;&lt;br&gt;&lt;/font&gt;" style="text;html=1;strokeColor=none;fillColor=none;align=center;verticalAlign=middle;whiteSpace=wrap;rounded=0;" parent="1" vertex="1">
          <mxGeometry x="338" y="310" width="40" height="20" as="geometry" />
        </mxCell>
        <mxCell id="zk9AVnoM1tUe2nTzyNRS-10" value="" style="endArrow=blockThin;html=1;endFill=1;strokeWidth=2;" parent="1" edge="1">
          <mxGeometry width="50" height="50" relative="1" as="geometry">
            <mxPoint x="339" y="310.83" as="sourcePoint" />
            <mxPoint x="377" y="310.83" as="targetPoint" />
          </mxGeometry>
        </mxCell>
        <mxCell id="vYqflnCAgJayOKZE_ec5-1" value="" style="shape=image;html=1;verticalAlign=top;verticalLabelPosition=bottom;labelBackgroundColor=#ffffff;imageAspect=0;aspect=fixed;image=https://cdn1.iconfinder.com/data/icons/DarkGlass_Reworked/128x128/actions/fileclose.png;rotation=0;" parent="1" vertex="1">
          <mxGeometry x="381" y="303.75" width="60" height="60" as="geometry" />
        </mxCell>
        <mxCell id="vYqflnCAgJayOKZE_ec5-2" value="" style="endArrow=classic;html=1;strokeWidth=6;" parent="1" edge="1">
          <mxGeometry width="50" height="50" relative="1" as="geometry">
            <mxPoint x="405" y="292" as="sourcePoint" />
            <mxPoint x="405" y="232" as="targetPoint" />
          </mxGeometry>
        </mxCell>
        <mxCell id="vYqflnCAgJayOKZE_ec5-9" value="" style="pointerEvents=1;verticalLabelPosition=bottom;shadow=0;dashed=0;align=center;html=1;verticalAlign=top;shape=mxgraph.electrical.waveforms.pulse_1;" parent="1" vertex="1">
          <mxGeometry x="241.5" y="267.5" width="15" height="15" as="geometry" />
        </mxCell>
        <mxCell id="vYqflnCAgJayOKZE_ec5-10" value="" style="pointerEvents=1;verticalLabelPosition=bottom;shadow=0;dashed=0;align=center;html=1;verticalAlign=top;shape=mxgraph.electrical.waveforms.pulse_2;" parent="1" vertex="1">
          <mxGeometry x="242.5" y="335.25" width="15" height="15" as="geometry" />
        </mxCell>
        <mxCell id="vYqflnCAgJayOKZE_ec5-14" value="" style="endArrow=classicThin;html=1;strokeWidth=1;endFill=1;" parent="1" edge="1">
          <mxGeometry width="50" height="50" relative="1" as="geometry">
            <mxPoint x="264" y="343.75" as="sourcePoint" />
            <mxPoint x="281" y="343.75" as="targetPoint" />
          </mxGeometry>
        </mxCell>
        <mxCell id="vYqflnCAgJayOKZE_ec5-15" value="" style="endArrow=classicThin;html=1;strokeWidth=1;endFill=1;" parent="1" edge="1">
          <mxGeometry width="50" height="50" relative="1" as="geometry">
            <mxPoint x="264" y="274.75000000000006" as="sourcePoint" />
            <mxPoint x="281" y="274.75000000000006" as="targetPoint" />
          </mxGeometry>
        </mxCell>
        <mxCell id="vYqflnCAgJayOKZE_ec5-16" value="&lt;font face=&quot;Times New Roman&quot;&gt;&lt;b&gt;D&lt;/b&gt;&lt;/font&gt;" style="text;html=1;strokeColor=none;fillColor=none;align=center;verticalAlign=middle;whiteSpace=wrap;rounded=0;" parent="1" vertex="1">
          <mxGeometry x="229" y="290" width="40" height="20" as="geometry" />
        </mxCell>
        <mxCell id="vYqflnCAgJayOKZE_ec5-17" value="&lt;font face=&quot;Times New Roman&quot;&gt;&lt;b&gt;1-D&lt;/b&gt;&lt;/font&gt;" style="text;html=1;strokeColor=none;fillColor=none;align=center;verticalAlign=middle;whiteSpace=wrap;rounded=0;" parent="1" vertex="1">
          <mxGeometry x="229" y="357.75" width="40" height="20" as="geometry" />
        </mxCell>
        <mxCell id="vYqflnCAgJayOKZE_ec5-20" value="&lt;font face=&quot;Times New Roman&quot;&gt;&lt;b&gt;互补PWM&lt;/b&gt;&lt;/font&gt;" style="rounded=1;whiteSpace=wrap;html=1;" parent="1" vertex="1">
          <mxGeometry x="218" y="222" width="62" height="23" as="geometry" />
        </mxCell>
        <mxCell id="vYqflnCAgJayOKZE_ec5-21" value="&lt;font face=&quot;Times New Roman&quot; style=&quot;font-size: 13px&quot;&gt;&lt;b&gt;&lt;i&gt;V&lt;/i&gt;&lt;/b&gt;&lt;sub&gt;IN&amp;gt;&lt;/sub&gt;&lt;b&gt;&lt;i&gt;V&lt;/i&gt;&lt;/b&gt;&lt;sub&gt;OUT&lt;/sub&gt;&lt;/font&gt;" style="text;html=1;strokeColor=none;fillColor=none;align=center;verticalAlign=middle;whiteSpace=wrap;rounded=0;" parent="1" vertex="1">
          <mxGeometry x="130" y="321" width="70" height="20" as="geometry" />
        </mxCell>
        <mxCell id="vYqflnCAgJayOKZE_ec5-22" value="&lt;font style=&quot;font-size: 18px&quot;&gt;V&lt;/font&gt;&lt;font style=&quot;font-size: 12px&quot;&gt;OUT&lt;/font&gt;" style="text;html=1;align=center;verticalAlign=middle;resizable=0;points=[];autosize=1;" parent="1" vertex="1">
          <mxGeometry x="453" y="199.75" width="50" height="20" as="geometry" />
        </mxCell>
      </root>
    </mxGraphModel>
  </diagram>
</mxfile>
